<svg xmlns="http://www.w3.org/2000/svg" xmlns:xlink="http://www.w3.org/1999/xlink" width="1380px" height="850px" viewBox="0 0 1380 850" preserveAspectRatio="xMidYMid meet" ><rect id="svgEditorBackground" x="0" y="0" width="1380" height="850" style="fill: none; stroke: none;"/><defs id="svgEditorDefs"><polygon id="svgEditorShapeDefs" style="fill:khaki;stroke:black;vector-effect:non-scaling-stroke;stroke-width:1px;"/></defs><path d="M4,0v-1.5a2,2,0,0,0,-2,-2h-4a2,2,0,0,0,-2,2v3a2,2,0,0,0,2,2h4a2,2,0,0,0,2,-2Z" style="fill:khaki; stroke:black; vector-effect:non-scaling-stroke;stroke-width:1px;" id="e1_shape" transform="matrix(20.25 0 0 20.25 274 207.875)"/><path d="M12.765432098765428,-0.07407407407407507v-1.500000000000001a2,2,0,0,0,-2,-2.000000000000001h-3.9999999999999982a2,2,0,0,0,-2,2.0000000000000018v3a2,2,0,0,0,2,2.0000000000000027h3.9999999999999982a2,2,0,0,0,2,-2.0000000000000018Z" style="fill:khaki; stroke:black; vector-effect:non-scaling-stroke;stroke-width:1px;" id="e9_shape" transform="matrix(20.25 0 0 20.25 274 207.875)"/><path d="M21.18518518518519,-0.19753086419752872v-1.5000000000000009a2,2,0,0,0,-2,-2.0000000000000027h-4.000000000000002a2,2,0,0,0,-1.999999999999993,2.0000000000000036v3.0000000000000027a2,2,0,0,0,1.999999999999993,1.9999999999999996h4.000000000000002a2,2,0,0,0,2,-1.9999999999999996Z" style="fill:khaki; stroke:black; vector-effect:non-scaling-stroke;stroke-width:1px;" id="e2_shape" transform="matrix(20.25 0 0 20.25 274 207.875)"/><path d="M29.950617283950614,-0.17283950617284416v-1.4999999999999996a2,2,0,0,0,-1.999999999999993,-2.0000000000000018h-4a2,2,0,0,0,-2,2.0000000000000027v3.0000000000000027a2,2,0,0,0,2,2.0000000000000036h4a2,2,0,0,0,1.999999999999993,-2.000000000000001Z" style="fill:khaki; stroke:black; vector-effect:non-scaling-stroke;stroke-width:1px;" id="e3_shape" transform="matrix(20.25 0 0 20.25 274 207.875)"/><path d="M38.27160493827168,-0.29629629629630877v-1.5000000000000004a2,2,0,0,0,-2,-2.000000000000003h-4.000000000000014a2,2,0,0,0,-2.000000000000057,2.0000000000000036v3.000000000000005a2,2,0,0,0,2.000000000000057,2.0000000000000036h4.000000000000014a2,2,0,0,0,2,-2.0000000000000027Z" style="fill:khaki; stroke:black; vector-effect:non-scaling-stroke;stroke-width:1px;" id="e4_shape" transform="matrix(20.25 0 0 20.25 274 207.875)"/><path d="M4.320987654321037,8.716049382716037v-1.4999999999999991a2,2,0,0,0,-2,-2h-4.000000000000018a2,2,0,0,0,-2.0000000000000275,2v3.0000000000000044a2,2,0,0,0,2.0000000000000275,2.0000000000000036h4.000000000000018a2,2,0,0,0,2,-2.0000000000000036Z" style="fill:khaki; stroke:black; vector-effect:non-scaling-stroke;stroke-width:1px;" id="e5_shape" transform="matrix(20.25 0 0 20.25 274 207.875)"/><path d="M13.03703703703708,8.641975308641953v-1.4999999999999982a2,2,0,0,0,-2,-2h-4.000000000000017a2,2,0,0,0,-2.000000000000024,2v3.0000000000000053a2,2,0,0,0,2.000000000000024,2h4.000000000000017a2,2,0,0,0,2,-2Z" style="fill:khaki; stroke:black; vector-effect:non-scaling-stroke;stroke-width:1px;" id="e6_shape" transform="matrix(20.25 0 0 20.25 274 207.875)"/><path d="M21.308641975308696,8.518518518518496v-1.4999999999999982a2,2,0,0,0,-2,-1.9999999999999938h-4.000000000000028a2,2,0,0,0,-2.000000000000023,1.9999999999999938v3.000000000000007a2,2,0,0,0,2.000000000000023,2h4.000000000000028a2,2,0,0,0,2,-2Z" style="fill:khaki; stroke:black; vector-effect:non-scaling-stroke;stroke-width:1px;" id="e7_shape" transform="matrix(20.25 0 0 20.25 274 207.875)"/><path d="M29.876543209876573,8.395061728395046v-1.5a2,2,0,0,0,-2,-2h-4.000000000000014a2,2,0,0,0,-2.000000000000025,2v3.0000000000000124a2,2,0,0,0,2.000000000000025,1.9999999999999964h4.000000000000014a2,2,0,0,0,2,-1.9999999999999964Z" style="fill:khaki; stroke:black; vector-effect:non-scaling-stroke;stroke-width:1px;" id="e8_shape" transform="matrix(20.25 0 0 20.25 274 207.875)"/><path d="M38.14814814814817,8.271604938271592v-1.4999999999999982a2,2,0,0,0,-2,-2h-4.000000000000014a2,2,0,0,0,-2.000000000000014,2v3.0000000000000124a2,2,0,0,0,2.000000000000014,2h4.000000000000014a2,2,0,0,0,2,-2Z" style="fill:khaki; stroke:black; vector-effect:non-scaling-stroke;stroke-width:1px;" id="e10_shape" transform="matrix(20.25 0 0 20.25 274 207.875)"/></svg>