<svg id="Layer_1" data-name="Layer 1" xmlns="http://www.w3.org/2000/svg" viewBox="0 0 641.55 523.69"><defs><style>.cls-1{fill:#a04c9d;}.cls-2{fill:none;stroke:#231f20;stroke-miterlimit:10;}.cls-3,.cls-4{font-size:14px;}.cls-11,.cls-3,.cls-4,.cls-6,.cls-9{fill:#231f20;}.cls-11,.cls-3,.cls-4,.cls-5,.cls-7{font-family:Arial;}.cls-3{letter-spacing:1.11px;}.cls-11,.cls-5{font-size:12px;}.cls-5,.cls-7{fill:#fff;}.cls-7{font-size:30px;font-weight:700;}.cls-8{letter-spacing:-2.22px;}.cls-9{font-size:24px;font-family:Segoe UI Symbol;}.cls-10{fill:#e59cc4;opacity:0.51;}.cls-11{opacity:0.86;}.cls-12{white-space:pre;}</style></defs><title>smothers4</title><polygon class="cls-1" points="640.31 387.08 641.04 403.61 489.6 449.13 488.91 434.36 640.31 387.08"/><polygon class="cls-1" points="639.27 363.64 639.97 379.46 488.54 426.52 487.82 411.1 639.27 363.64"/><polygon class="cls-1" points="638.29 341.35 638.92 355.78 487.45 403.16 486.75 388.12 638.29 341.35"/><polygon class="cls-1" points="637.26 318.26 637.96 333.98 486.38 380.25 485.67 364.84 637.26 318.26"/><polygon class="cls-1" points="636.25 295.23 636.88 309.66 485.29 356.87 484.58 341.63 636.25 295.23"/><polygon class="cls-1" points="635.25 272.61 635.87 286.77 484.22 333.82 483.51 318.61 635.25 272.61"/><polygon class="cls-1" points="634.23 249.73 634.97 266.49 483.15 310.89 482.42 295.35 634.23 249.73"/><polygon class="cls-1" points="633.23 227.04 633.83 240.51 482.06 287.51 481.35 272.39 633.23 227.04"/><polygon class="cls-1" points="627 205.1 632.51 218.24 480.97 264.32 480.96 264.01 479.19 249.52 627 205.1"/><polygon class="cls-1" points="623.19 195.99 478.17 241.15 476.35 226.25 618.24 184.18 623.19 195.99"/><polygon class="cls-1" points="621.84 416.46 621.84 432.06 605.41 436.67 605.17 421.59 621.84 416.46"/><polygon class="cls-1" points="609.59 163.53 615.21 176.95 475.39 218.34 473.53 203.08 609.59 163.53"/><polygon class="cls-1" points="600.92 142.83 606.65 156.52 472.57 195.21 470.8 180.72 471.88 180.45 600.92 142.83"/><polygon class="cls-1" points="592.25 122.13 598.07 136.03 470.44 173.01 469.87 173.15 468.08 158.46 468.52 158.37 592.25 122.13"/><polygon class="cls-1" points="583.92 102.25 590.44 117.81 467.56 150.69 467.15 150.77 465.12 134.17 583.92 102.25"/><polygon class="cls-1" points="554.68 436.25 554.68 451.85 525.64 460.01 524.92 444.89 554.68 436.25"/><polygon class="cls-1" points="467.76 464.37 468.52 479.73 174.28 479.73 175.02 464.37 467.76 464.37"/><polygon class="cls-1" points="466.62 441.32 467.37 456.45 175.4 456.45 176.12 441.31 176.2 441.33 466.6 441.33 466.62 441.32"/><polygon class="cls-1" points="465.48 418.05 466.23 433.41 176.5 433.41 177.24 418.05 465.48 418.05"/><polygon class="cls-1" points="464.34 395.01 465.08 410.13 177.64 410.13 177.62 410.12 178.34 395 178.36 395.01 464.34 395.01"/><polygon class="cls-1" points="463.19 371.73 463.95 387.09 178.84 387.09 178.72 387.05 179.46 371.7 179.56 371.73 463.19 371.73"/><polygon class="cls-1" points="462.04 348.45 462.8 363.81 179.84 363.81 180.57 348.45 462.04 348.45"/><polygon class="cls-1" points="460.9 325.41 461.66 340.77 181 340.77 180.94 340.75 181.68 325.4 181.72 325.41 460.9 325.41"/><polygon class="cls-1" points="459.75 302.13 460.51 317.49 182.2 317.49 182.06 317.45 182.78 302.37 459.75 302.13"/><polygon class="cls-1" points="458.62 279.09 459.38 294.45 183.16 294.45 183.9 279.09 458.62 279.09"/><polygon class="cls-1" points="457.48 256.05 458.23 271.17 184.36 271.17 184.28 271.15 184.84 259.41 185.28 255.97 185.56 256.05 457.48 256.05"/><polygon class="cls-1" points="454.49 232.73 456.43 247.89 186.32 247.89 188.27 232.72 188.44 232.77 454.36 232.77 454.49 232.73"/><polygon class="cls-1" points="451.51 209.48 453.48 224.83 453.4 224.85 189.4 224.85 189.29 224.82 191.26 209.47 191.32 209.49 451.48 209.49 451.51 209.48"/><polygon class="cls-1" points="448.53 186.21 450.5 201.57 192.28 201.57 192.27 201.57 194.25 186.21 448.53 186.21"/><polygon class="cls-1" points="445.58 163.15 447.55 178.5 447.4 178.53 195.4 178.53 195.24 178.49 197.21 163.15 197.32 163.17 445.48 163.17 445.58 163.15"/><polygon class="cls-1" points="442.6 139.89 444.57 155.24 444.52 155.25 198.28 155.25 198.23 155.24 200.2 139.89 442.6 139.89"/><polygon class="cls-1" points="176.44 133.17 174.32 150.56 51.91 114.94 57.64 101.25 176.44 133.17"/><polygon class="cls-1" points="49.17 121.46 173.38 158.25 171.59 172.92 43.72 134.48 49.17 121.46"/><polygon class="cls-1" points="170.62 180.84 168.92 194.85 34.62 156.21 40.89 141.23 170.62 180.84"/><polygon class="cls-1" points="167.96 202.72 166.09 217.97 26.06 176.64 31.68 163.23 167.96 202.72"/><polygon class="cls-1" points="165.14 225.81 163.28 241.03 17.33 197.49 23.21 183.45 165.14 225.81"/><polygon class="cls-1" points="162.3 249.09 160.6 263.01 160.55 263.98 8.68 218.13 14.27 204.78 162.3 249.09"/><polygon class="cls-1" points="160.18 272.03 159.48 287.15 7.7 240.33 8.3 226.8 160.18 272.03"/><polygon class="cls-1" points="159.1 295.27 158.41 310.21 6.67 263.78 7.3 249.59 159.1 295.27"/><polygon class="cls-1" points="158.04 318.13 157.33 333.51 5.65 287.02 6.33 271.47 158.04 318.13"/><polygon class="cls-1" points="156.97 341.26 156.25 356.74 4.59 311.18 5.3 295 156.97 341.26"/><polygon class="cls-1" points="155.89 364.48 155.18 379.7 3.65 332.37 4.29 318.02 155.89 364.48"/><polygon class="cls-1" points="154.81 387.76 154.11 402.87 2.61 356.13 3.27 341.12 154.81 387.76"/><polygon class="cls-1" points="153.74 410.85 153.03 426.11 1.61 378.88 2.25 364.29 153.74 410.85"/><polygon class="cls-1" points="152.66 434 151.96 449.13 0.52 403.61 1.26 386.84 152.66 434"/><polygon class="cls-1" points="151.72 455.17 151 470.29 134.96 466.13 135.96 450.53 151.72 455.17"/><line class="cls-2" x1="43.72" y1="134.48" x2="49.17" y2="121.46"/><line class="cls-2" x1="34.62" y1="156.21" x2="40.89" y2="141.23"/><line class="cls-2" x1="26.06" y1="176.64" x2="31.68" y2="163.23"/><line class="cls-2" x1="17.33" y1="197.49" x2="23.21" y2="183.45"/><line class="cls-2" x1="8.68" y1="218.13" x2="14.27" y2="204.78"/><line class="cls-2" x1="7.7" y1="240.33" x2="8.3" y2="226.8"/><line class="cls-2" x1="6.67" y1="263.78" x2="7.3" y2="249.59"/><line class="cls-2" x1="5.65" y1="287.02" x2="6.33" y2="271.47"/><line class="cls-2" x1="4.59" y1="311.18" x2="5.3" y2="295"/><line class="cls-2" x1="3.65" y1="332.37" x2="4.29" y2="318.02"/><line class="cls-2" x1="2.61" y1="356.13" x2="3.27" y2="341.12"/><line class="cls-2" x1="1.61" y1="378.88" x2="2.25" y2="364.29"/><polyline class="cls-2" points="152.66 434 151.96 449.13 0.52 403.61 1.26 386.84"/><line class="cls-2" x1="153.74" y1="410.85" x2="153.03" y2="426.11"/><line class="cls-2" x1="154.81" y1="387.76" x2="154.11" y2="402.87"/><line class="cls-2" x1="155.89" y1="364.48" x2="155.18" y2="379.7"/><line class="cls-2" x1="156.97" y1="341.26" x2="156.25" y2="356.74"/><line class="cls-2" x1="158.04" y1="318.13" x2="157.33" y2="333.51"/><line class="cls-2" x1="159.1" y1="295.27" x2="158.41" y2="310.21"/><line class="cls-2" x1="160.18" y1="272.03" x2="159.48" y2="287.15"/><polyline class="cls-2" points="162.3 249.09 160.6 263.01 160.55 263.98"/><line class="cls-2" x1="165.14" y1="225.81" x2="163.28" y2="241.03"/><line class="cls-2" x1="167.96" y1="202.72" x2="166.09" y2="217.97"/><line class="cls-2" x1="170.62" y1="180.84" x2="168.92" y2="194.85"/><line class="cls-2" x1="173.38" y1="158.25" x2="171.59" y2="172.92"/><polyline class="cls-2" points="51.91 114.94 57.64 101.25 176.44 133.17 174.32 150.56"/><line class="cls-2" x1="195.24" y1="178.49" x2="197.21" y2="163.15"/><line class="cls-2" x1="192.27" y1="201.57" x2="194.25" y2="186.21"/><line class="cls-2" x1="189.29" y1="224.82" x2="191.26" y2="209.47"/><line class="cls-2" x1="186.32" y1="247.89" x2="188.27" y2="232.72"/><polyline class="cls-2" points="184.28 271.15 184.84 259.41 185.28 255.97"/><line class="cls-2" x1="183.16" y1="294.45" x2="183.9" y2="279.09"/><line class="cls-2" x1="182.06" y1="317.45" x2="182.78" y2="302.37"/><line class="cls-2" x1="180.94" y1="340.75" x2="181.68" y2="325.4"/><line class="cls-2" x1="179.84" y1="363.81" x2="180.57" y2="348.45"/><line class="cls-2" x1="178.72" y1="387.05" x2="179.46" y2="371.7"/><line class="cls-2" x1="177.62" y1="410.12" x2="178.34" y2="395"/><line class="cls-2" x1="176.5" y1="433.41" x2="177.24" y2="418.05"/><line class="cls-2" x1="175.4" y1="456.45" x2="176.12" y2="441.31"/><polyline class="cls-2" points="467.76 464.37 468.52 479.73 174.28 479.73 175.02 464.37"/><line class="cls-2" x1="466.62" y1="441.32" x2="467.37" y2="456.45"/><line class="cls-2" x1="465.48" y1="418.05" x2="466.23" y2="433.41"/><line class="cls-2" x1="464.34" y1="395.01" x2="465.08" y2="410.13"/><line class="cls-2" x1="463.19" y1="371.73" x2="463.95" y2="387.09"/><line class="cls-2" x1="462.04" y1="348.45" x2="462.8" y2="363.81"/><line class="cls-2" x1="460.9" y1="325.41" x2="461.66" y2="340.77"/><line class="cls-2" x1="459.75" y1="302.13" x2="460.51" y2="317.49"/><line class="cls-2" x1="458.62" y1="279.09" x2="459.38" y2="294.45"/><line class="cls-2" x1="457.48" y1="256.05" x2="458.23" y2="271.17"/><line class="cls-2" x1="454.49" y1="232.73" x2="456.43" y2="247.89"/><line class="cls-2" x1="451.51" y1="209.48" x2="453.48" y2="224.83"/><line class="cls-2" x1="448.53" y1="186.21" x2="450.5" y2="201.57"/><line class="cls-2" x1="445.58" y1="163.15" x2="447.55" y2="178.5"/><polyline class="cls-2" points="198.23 155.24 200.2 139.89 442.6 139.89 444.57 155.24"/><line class="cls-2" x1="598.07" y1="136.03" x2="592.25" y2="122.13"/><line class="cls-2" x1="606.65" y1="156.52" x2="600.92" y2="142.83"/><line class="cls-2" x1="615.21" y1="176.95" x2="609.59" y2="163.53"/><line class="cls-2" x1="623.19" y1="195.99" x2="618.24" y2="184.18"/><line class="cls-2" x1="632.51" y1="218.24" x2="627" y2="205.1"/><line class="cls-2" x1="633.83" y1="240.51" x2="633.23" y2="227.04"/><line class="cls-2" x1="634.97" y1="266.49" x2="634.23" y2="249.73"/><line class="cls-2" x1="635.87" y1="286.77" x2="635.25" y2="272.61"/><line class="cls-2" x1="636.88" y1="309.66" x2="636.25" y2="295.23"/><line class="cls-2" x1="637.96" y1="333.98" x2="637.26" y2="318.26"/><line class="cls-2" x1="638.92" y1="355.78" x2="638.29" y2="341.35"/><line class="cls-2" x1="639.97" y1="379.46" x2="639.27" y2="363.64"/><polyline class="cls-2" points="488.91 434.36 489.6 449.13 641.04 403.61 640.31 387.08"/><line class="cls-2" x1="487.82" y1="411.1" x2="488.54" y2="426.52"/><line class="cls-2" x1="486.75" y1="388.12" x2="487.45" y2="403.16"/><line class="cls-2" x1="485.67" y1="364.84" x2="486.38" y2="380.25"/><line class="cls-2" x1="484.58" y1="341.63" x2="485.29" y2="356.87"/><line class="cls-2" x1="483.51" y1="318.61" x2="484.22" y2="333.82"/><line class="cls-2" x1="482.42" y1="295.35" x2="483.15" y2="310.89"/><line class="cls-2" x1="481.35" y1="272.39" x2="482.06" y2="287.51"/><polyline class="cls-2" points="479.19 249.52 480.96 264.01 480.97 264.32"/><line class="cls-2" x1="476.35" y1="226.25" x2="478.17" y2="241.15"/><line class="cls-2" x1="473.53" y1="203.08" x2="475.39" y2="218.34"/><line class="cls-2" x1="470.8" y1="180.72" x2="472.57" y2="195.21"/><line class="cls-2" x1="468.08" y1="158.46" x2="469.87" y2="173.15"/><polyline class="cls-2" points="590.44 117.81 583.92 102.25 465.12 134.17 467.15 150.77"/><polygon class="cls-2" points="605.17 421.59 621.84 416.46 621.84 432.06 605.41 436.67 605.17 421.59"/><polygon class="cls-2" points="524.92 444.89 554.68 436.25 554.68 451.85 525.64 460.01 524.92 444.89"/><line class="cls-2" x1="173.38" y1="158.25" x2="49.17" y2="121.46"/><polyline class="cls-2" points="445.58 163.15 445.48 163.17 197.32 163.17 197.21 163.15"/><polyline class="cls-2" points="592.25 122.13 468.52 158.37 468.08 158.46"/><polyline class="cls-2" points="467.15 150.77 467.56 150.69 590.44 117.81"/><polyline class="cls-2" points="198.23 155.24 198.28 155.25 444.52 155.25 444.57 155.24"/><line class="cls-2" x1="51.91" y1="114.94" x2="174.32" y2="150.56"/><line class="cls-2" x1="171.59" y1="172.92" x2="43.72" y2="134.48"/><polyline class="cls-2" points="447.55 178.5 447.4 178.53 195.4 178.53 195.24 178.49"/><polyline class="cls-2" points="598.07 136.03 470.44 173.01 469.87 173.15"/><polyline class="cls-2" points="470.8 180.72 471.88 180.45 600.92 142.83"/><line class="cls-2" x1="194.25" y1="186.21" x2="448.53" y2="186.21"/><line class="cls-2" x1="40.89" y1="141.23" x2="170.62" y2="180.84"/><line class="cls-2" x1="168.92" y1="194.85" x2="34.62" y2="156.21"/><polyline class="cls-2" points="450.5 201.57 192.28 201.57 192.27 201.57"/><line class="cls-2" x1="606.65" y1="156.52" x2="472.57" y2="195.21"/><line class="cls-2" x1="473.53" y1="203.08" x2="609.59" y2="163.53"/><polyline class="cls-2" points="191.26 209.47 191.32 209.49 451.48 209.49 451.51 209.48"/><line class="cls-2" x1="31.68" y1="163.23" x2="167.96" y2="202.72"/><line class="cls-2" x1="166.09" y1="217.97" x2="26.06" y2="176.64"/><polyline class="cls-2" points="453.48 224.83 453.4 224.85 189.4 224.85 189.29 224.82"/><line class="cls-2" x1="615.21" y1="176.95" x2="475.39" y2="218.34"/><line class="cls-2" x1="476.35" y1="226.25" x2="618.24" y2="184.18"/><polyline class="cls-2" points="188.27 232.72 188.44 232.77 454.36 232.77 454.49 232.73"/><line class="cls-2" x1="23.21" y1="183.45" x2="165.14" y2="225.81"/><polyline class="cls-2" points="163.28 241.03 17.33 197.49 17.32 197.49"/><line class="cls-2" x1="456.43" y1="247.89" x2="186.32" y2="247.89"/><line class="cls-2" x1="623.19" y1="195.99" x2="478.17" y2="241.15"/><line class="cls-2" x1="479.19" y1="249.52" x2="627" y2="205.1"/><polyline class="cls-2" points="185.28 255.97 185.56 256.05 457.48 256.05"/><line class="cls-2" x1="14.27" y1="204.78" x2="162.3" y2="249.09"/><line class="cls-2" x1="160.55" y1="263.98" x2="8.68" y2="218.13"/><polyline class="cls-2" points="458.23 271.17 184.36 271.17 184.28 271.15"/><line class="cls-2" x1="632.51" y1="218.24" x2="480.97" y2="264.32"/><line class="cls-2" x1="481.35" y1="272.39" x2="633.23" y2="227.04"/><line class="cls-2" x1="183.9" y1="279.09" x2="458.62" y2="279.09"/><line class="cls-2" x1="8.3" y1="226.8" x2="160.18" y2="272.03"/><line class="cls-2" x1="159.48" y1="287.15" x2="7.7" y2="240.33"/><line class="cls-2" x1="459.38" y1="294.45" x2="183.16" y2="294.45"/><line class="cls-2" x1="633.83" y1="240.51" x2="482.06" y2="287.51"/><line class="cls-2" x1="482.42" y1="295.35" x2="634.23" y2="249.73"/><line class="cls-2" x1="182.78" y1="302.37" x2="459.75" y2="302.13"/><line class="cls-2" x1="7.3" y1="249.59" x2="159.1" y2="295.27"/><line class="cls-2" x1="158.41" y1="310.21" x2="6.67" y2="263.78"/><polyline class="cls-2" points="460.51 317.49 182.2 317.49 182.06 317.45"/><line class="cls-2" x1="634.97" y1="266.49" x2="483.15" y2="310.89"/><line class="cls-2" x1="483.51" y1="318.61" x2="635.25" y2="272.61"/><polyline class="cls-2" points="181.68 325.4 181.72 325.41 460.9 325.41"/><line class="cls-2" x1="6.33" y1="271.47" x2="158.04" y2="318.13"/><line class="cls-2" x1="157.33" y1="333.51" x2="5.65" y2="287.02"/><polyline class="cls-2" points="461.66 340.77 181 340.77 180.94 340.75"/><line class="cls-2" x1="635.87" y1="286.77" x2="484.22" y2="333.82"/><line class="cls-2" x1="484.58" y1="341.63" x2="636.25" y2="295.23"/><line class="cls-2" x1="180.57" y1="348.45" x2="462.04" y2="348.45"/><line class="cls-2" x1="5.3" y1="295" x2="156.97" y2="341.26"/><line class="cls-2" x1="156.25" y1="356.74" x2="4.59" y2="311.18"/><line class="cls-2" x1="462.8" y1="363.81" x2="179.84" y2="363.81"/><line class="cls-2" x1="636.88" y1="309.66" x2="485.29" y2="356.87"/><line class="cls-2" x1="485.67" y1="364.84" x2="637.26" y2="318.26"/><polyline class="cls-2" points="179.46 371.7 179.56 371.73 463.19 371.73"/><line class="cls-2" x1="4.29" y1="318.02" x2="155.89" y2="364.48"/><line class="cls-2" x1="155.18" y1="379.7" x2="3.65" y2="332.37"/><polyline class="cls-2" points="463.95 387.09 178.84 387.09 178.72 387.05"/><line class="cls-2" x1="637.96" y1="333.98" x2="486.38" y2="380.25"/><line class="cls-2" x1="486.75" y1="388.12" x2="638.29" y2="341.35"/><polyline class="cls-2" points="178.34 395 178.36 395.01 464.34 395.01"/><line class="cls-2" x1="3.27" y1="341.12" x2="154.81" y2="387.76"/><line class="cls-2" x1="487.82" y1="411.1" x2="639.27" y2="363.64"/><line class="cls-2" x1="177.24" y1="418.05" x2="465.48" y2="418.05"/><line class="cls-2" x1="2.25" y1="364.29" x2="153.74" y2="410.85"/><line class="cls-2" x1="154.11" y1="402.87" x2="2.61" y2="356.13"/><polyline class="cls-2" points="465.08 410.13 177.64 410.13 177.62 410.12"/><line class="cls-2" x1="638.92" y1="355.78" x2="487.45" y2="403.16"/><line class="cls-2" x1="153.03" y1="426.11" x2="1.61" y2="378.88"/><line class="cls-2" x1="466.23" y1="433.41" x2="176.5" y2="433.41"/><line class="cls-2" x1="639.97" y1="379.46" x2="488.54" y2="426.52"/><line class="cls-2" x1="488.91" y1="434.36" x2="640.31" y2="387.08"/><polyline class="cls-2" points="176.12 441.31 176.2 441.33 466.6 441.33 466.62 441.32"/><line class="cls-2" x1="1.26" y1="386.84" x2="152.66" y2="434"/><line class="cls-2" x1="467.37" y1="456.45" x2="175.4" y2="456.45"/><line class="cls-2" x1="175.02" y1="464.37" x2="467.76" y2="464.37"/><polygon class="cls-2" points="151.72 455.17 135.96 450.53 134.96 466.13 151 470.29 151.72 455.17"/><text class="cls-3" transform="translate(182.63 148.3) rotate(6) scale(0.9 1)">A<tspan x="-0.32" y="26.17">B</tspan><tspan x="-1" y="50.33">C</tspan><tspan x="-1.29" y="73.49">D</tspan><tspan x="-1.18" y="96.64">E</tspan><tspan x="-1.07" y="119.79">F</tspan><tspan x="-2.02" y="142.9">G</tspan><tspan x="-0.11" y="165.88">H</tspan><tspan x="4.52" y="188.87">I</tspan></text><text class="cls-4" transform="translate(165.08 359.77) scale(0.9 1)">J<tspan x="-2.33" y="23">K</tspan><tspan x="-2.4" y="45">L</tspan><tspan x="-5.71" y="67">M</tspan><tspan x="-6.05" y="89">N</tspan><tspan x="-7.75" y="115">O</tspan></text><text class="cls-3" transform="translate(450.32 150.12) rotate(-6) scale(0.9 1)">A<tspan x="0.58" y="26.2">B</tspan><tspan x="0.73" y="50.38">C</tspan><tspan x="1.25" y="73.56">D</tspan><tspan x="2.15" y="96.73">E</tspan><tspan x="3.06" y="119.91">F</tspan><tspan x="1.94" y="143.04">G</tspan><tspan x="0.93" y="166.03">H</tspan><tspan x="2.64" y="189.03">I</tspan></text><text class="cls-4" transform="translate(471.58 360.71) scale(0.9 1)">J<tspan x="0.11" y="23">K</tspan><tspan x="2.37" y="45">L</tspan><tspan x="1.39" y="67">M</tspan><tspan x="3.39" y="89">N</tspan><tspan x="4.45" y="115">O</tspan></text><text class="cls-5" transform="translate(577.27 114.84) scale(0.9 1)">3<tspan x="9.24" y="20">3</tspan><tspan x="18.49" y="40">2</tspan><tspan x="27.73" y="60">2</tspan><tspan x="36.98" y="80">1</tspan><tspan x="47.15" y="102">1</tspan><tspan x="52.37" y="124">1</tspan><tspan x="53.65" y="150">1</tspan><tspan x="54.63" y="170">1</tspan><tspan x="55.76" y="193">1</tspan><tspan x="56.89" y="216">1</tspan><tspan x="58.02" y="239">1</tspan><tspan x="59.15" y="262">1</tspan><tspan x="60.28" y="285">1</tspan><tspan x="37.69" y="314">3</tspan><tspan x="-38.54" y="335">6</tspan></text><text class="cls-5" transform="translate(59.72 115.14) scale(0.9 1)">30<tspan x="-9.47" y="20">30</tspan><tspan x="-18.94" y="40">31</tspan><tspan x="-29.35" y="62">31</tspan><tspan x="-38.82" y="82">32</tspan><tspan x="-48.77" y="103">32</tspan><tspan x="-54.83" y="125">32</tspan><tspan x="-55.96" y="148">32</tspan><tspan x="-57.11" y="171">32</tspan><tspan x="-58.29" y="195">32</tspan><tspan x="-59.33" y="216">32</tspan><tspan x="-60.52" y="240">32</tspan><tspan x="-61.66" y="263">32</tspan><tspan x="-62.8" y="286">32</tspan></text><text class="cls-5" transform="translate(201.21 150.96) scale(0.9 1)">22<tspan x="-3.28" y="23">22</tspan><tspan x="-6.57" y="46">22</tspan><tspan x="-10" y="70">23</tspan><tspan x="-13.28" y="93">23</tspan><tspan x="-16.56" y="116">23</tspan><tspan x="-18" y="139">23</tspan><tspan x="-19.23" y="162">23</tspan><tspan x="-20.51" y="186">23</tspan><tspan x="-21.73" y="209">23</tspan><tspan x="-22.96" y="232">23</tspan><tspan x="-24.18" y="255">23</tspan><tspan x="-25.41" y="278">23</tspan><tspan x="-26.63" y="301">23</tspan><tspan x="-27.86" y="324">23</tspan></text><text class="cls-5" transform="translate(470.63 144.64) scale(0.9 1)">9<tspan x="-0.05" y="23">9</tspan><tspan x="2.86" y="46">9</tspan><tspan x="5.77" y="69">9</tspan><tspan x="8.68" y="92">9</tspan><tspan x="11.59" y="115">9</tspan><tspan x="14.07" y="138">9</tspan><tspan x="15.32" y="161">9</tspan><tspan x="16.57" y="184">9</tspan><tspan x="17.83" y="207">9</tspan><tspan x="19.08" y="230">9</tspan><tspan x="20.33" y="253">9</tspan><tspan x="21.58" y="276">9</tspan><tspan x="22.83" y="299">9</tspan><tspan x="63.28" y="310">7</tspan></text><text x="-4" y="-4.33"/><text x="-4" y="-4.33"/><text x="-4" y="-4.33"/><text class="cls-5" transform="translate(429.67 150.48) scale(0.9 1)">12<tspan x="2.54" y="23">12</tspan><tspan x="5.97" y="46">1</tspan><tspan x="11.75" y="46">1</tspan><tspan x="8.62" y="70">1</tspan><tspan x="14.4" y="70">1</tspan><tspan x="11.15" y="93">1</tspan><tspan x="16.94" y="93">1</tspan><tspan x="12.8" y="116">10</tspan><tspan x="14.73" y="139">10</tspan><tspan x="15.99" y="163">10</tspan><tspan x="17.19" y="186">10</tspan><tspan x="18.4" y="209">10</tspan><tspan x="19.6" y="232">10</tspan><tspan x="20.81" y="255">10</tspan><tspan x="22.01" y="278">10</tspan><tspan x="23.22" y="301">10</tspan><tspan x="24.43" y="324">10</tspan></text><polygon class="cls-6" points="551.76 0 563.76 40 74.6 40 86.6 0 551.76 0"/><text class="cls-7" transform="translate(273.67 30.48) scale(0.9 1)">S<tspan class="cls-8" x="20.01" y="0">T</tspan><tspan x="36.11" y="0">AGE</tspan></text><text class="cls-5" transform="translate(234.03 476.26) scale(0.9 1)">Limited Mobility (No Stairs Required)</text><text class="cls-9" transform="translate(587 440.11) scale(0.9 1)">♿<tspan x="-29.63" y="8">♿</tspan><tspan x="-88.91" y="24">♿</tspan></text><text x="-4" y="-4.33"/><text x="-4" y="-4.33"/><polygon class="cls-10" points="74.6 40 91.5 83.34 194.34 110.25 456.34 110.55 547.34 83.34 563.76 40 74.6 40"/><text class="cls-11" transform="translate(189.14 73.82)">S<tspan x="8" y="0">T</tspan><tspan x="14.44" y="0">AGE EXTENSION/ORCHESTR</tspan><tspan x="183.13" y="0">A</tspan><tspan class="cls-12" x="190.48" y="0">  PIT/FLOOR</tspan></text><text class="cls-5" transform="translate(161.45 143.38) scale(0.9 1)">24<tspan x="-3.03" y="23">24</tspan><tspan x="-6.07" y="46">24</tspan><tspan x="-9.1" y="69">24</tspan><tspan x="-12.13" y="92">24</tspan><tspan x="-15.17" y="115">24</tspan><tspan x="-17.49" y="137">24</tspan><tspan x="-18.68" y="160">24</tspan><tspan x="-19.86" y="183">24</tspan><tspan x="-21.1" y="207">24</tspan><tspan x="-22.29" y="230">24</tspan><tspan x="-23.47" y="253">24</tspan><tspan x="-24.71" y="277">24</tspan><tspan x="-25.9" y="300">24</tspan><tspan class="cls-9"><tspan x="-47.71" y="321">♿</tspan></tspan><tspan x="-26.99" y="321.1">24</tspan></text></svg>